<svg xmlns="http://www.w3.org/2000/svg" viewBox="0 0 1200 300" fill="none">
  <defs>
    <linearGradient id="bg" x1="0%" y1="0%" x2="100%" y2="100%">
      <stop offset="0%" style="stop-color:#0d1117"/>
      <stop offset="100%" style="stop-color:#161b22"/>
    </linearGradient>
    <linearGradient id="accent" x1="0%" y1="0%" x2="100%" y2="0%">
      <stop offset="0%" style="stop-color:#58a6ff"/>
      <stop offset="100%" style="stop-color:#a371f7"/>
    </linearGradient>
  </defs>
  <rect width="1200" height="300" fill="url(#bg)" rx="12"/>
  <!-- Decorative grid dots -->
  <g opacity="0.08" fill="#58a6ff">
    <circle cx="50" cy="50" r="2"/><circle cx="100" cy="50" r="2"/><circle cx="150" cy="50" r="2"/><circle cx="200" cy="50" r="2"/><circle cx="250" cy="50" r="2"/><circle cx="300" cy="50" r="2"/>
    <circle cx="50" cy="100" r="2"/><circle cx="100" cy="100" r="2"/><circle cx="150" cy="100" r="2"/><circle cx="200" cy="100" r="2"/><circle cx="250" cy="100" r="2"/><circle cx="300" cy="100" r="2"/>
    <circle cx="50" cy="150" r="2"/><circle cx="100" cy="150" r="2"/><circle cx="150" cy="150" r="2"/><circle cx="200" cy="150" r="2"/><circle cx="250" cy="150" r="2"/><circle cx="300" cy="150" r="2"/>
    <circle cx="50" cy="200" r="2"/><circle cx="100" cy="200" r="2"/><circle cx="150" cy="200" r="2"/><circle cx="200" cy="200" r="2"/><circle cx="250" cy="200" r="2"/><circle cx="300" cy="200" r="2"/>
    <circle cx="50" cy="250" r="2"/><circle cx="100" cy="250" r="2"/><circle cx="150" cy="250" r="2"/><circle cx="200" cy="250" r="2"/><circle cx="250" cy="250" r="2"/><circle cx="300" cy="250" r="2"/>
    <circle cx="900" cy="50" r="2"/><circle cx="950" cy="50" r="2"/><circle cx="1000" cy="50" r="2"/><circle cx="1050" cy="50" r="2"/><circle cx="1100" cy="50" r="2"/><circle cx="1150" cy="50" r="2"/>
    <circle cx="900" cy="100" r="2"/><circle cx="950" cy="100" r="2"/><circle cx="1000" cy="100" r="2"/><circle cx="1050" cy="100" r="2"/><circle cx="1100" cy="100" r="2"/><circle cx="1150" cy="100" r="2"/>
    <circle cx="900" cy="150" r="2"/><circle cx="950" cy="150" r="2"/><circle cx="1000" cy="150" r="2"/><circle cx="1050" cy="150" r="2"/><circle cx="1100" cy="150" r="2"/><circle cx="1150" cy="150" r="2"/>
    <circle cx="900" cy="200" r="2"/><circle cx="950" cy="200" r="2"/><circle cx="1000" cy="200" r="2"/><circle cx="1050" cy="200" r="2"/><circle cx="1100" cy="200" r="2"/><circle cx="1150" cy="200" r="2"/>
    <circle cx="900" cy="250" r="2"/><circle cx="950" cy="250" r="2"/><circle cx="1000" cy="250" r="2"/><circle cx="1050" cy="250" r="2"/><circle cx="1100" cy="250" r="2"/><circle cx="1150" cy="250" r="2"/>
  </g>
  <!-- Accent line -->
  <rect x="0" y="296" width="1200" height="4" fill="url(#accent)"/>
  <!-- Sparkle icon -->
  <g transform="translate(440, 100)">
    <path d="M16 0L19.5 11.5L32 16L19.5 20.5L16 32L12.5 20.5L0 16L12.5 11.5Z" fill="url(#accent)" opacity="0.9"/>
  </g>
  <!-- Title -->
  <text x="600" y="155" text-anchor="middle" font-family="-apple-system, BlinkMacSystemFont, 'Segoe UI', Helvetica, Arial, sans-serif" font-size="48" font-weight="700" fill="#f0f6fc">AI Center of Excellence</text>
  <!-- Subtitle -->
  <text x="600" y="200" text-anchor="middle" font-family="-apple-system, BlinkMacSystemFont, 'Segoe UI', Helvetica, Arial, sans-serif" font-size="20" font-weight="400" fill="#8b949e">Starter Pack for Responsible AI Adoption</text>
  <!-- Pill badges -->
  <g transform="translate(420, 230)">
    <rect x="0" y="0" width="100" height="26" rx="13" fill="#1f6feb" opacity="0.2"/>
    <text x="50" y="17" text-anchor="middle" font-family="monospace" font-size="12" fill="#58a6ff">Strategy</text>
    <rect x="115" y="0" width="120" height="26" rx="13" fill="#8957e5" opacity="0.2"/>
    <text x="175" y="17" text-anchor="middle" font-family="monospace" font-size="12" fill="#a371f7">Governance</text>
    <rect x="250" y="0" width="120" height="26" rx="13" fill="#1f6feb" opacity="0.2"/>
    <text x="310" y="17" text-anchor="middle" font-family="monospace" font-size="12" fill="#58a6ff">Enablement</text>
  </g>
</svg>
